<?xml version="1.0" encoding="UTF-8"?>
<svg xmlns="http://www.w3.org/2000/svg" width="147" height="50" viewBox="0 0 147 50" fill="none">
  <path d="M100.864 22.9676C98.0677 22.9676 97.1595 25.4707 97.1595 28.8309L97.2138 35.2797C97.2138 35.5657 96.9904 35.7964 96.7065 35.7964L94.7221 35.7964C94.4445 35.7964 94.2148 35.5647 94.2148 35.286L94.2148 20.9123C94.2148 20.6336 94.4455 20.4019 94.7221 20.4019L96.7065 20.4019C96.9841 20.4019 97.2138 20.6336 97.2138 20.9123L97.2138 23.3611C97.9111 21.3142 99.076 20.4019 101.229 20.4019L103.505 20.4019C103.783 20.4019 104.012 20.6336 104.012 20.9123L104.012 22.4561C104.012 22.7348 103.782 22.9666 103.505 22.9666L100.864 22.9666L100.864 22.9676Z" fill="#F4F4F4"></path>
  <path d="M74.9906 14.249L77.3403 14.249C77.7808 14.249 78.0104 14.773 77.7129 15.106L70.2171 23.3638L78.668 34.9891C78.9123 35.3294 78.668 35.7981 78.2547 35.7981L75.6273 35.7981C75.4645 35.7981 75.309 35.7167 75.214 35.581L68.0772 25.486L64.001 29.9139L64.001 35.2814C64.001 35.5601 63.7703 35.7918 63.4927 35.7918L61.5083 35.7918C61.2307 35.7918 61 35.5611 61 35.2814L61 14.7595C61 14.4808 61.2307 14.249 61.5083 14.249L63.4927 14.249C63.7704 14.249 64.001 14.4808 64.001 14.7595L64.001 24.7448C64.001 25.4526 63.785 26.3774 63.5407 27.0851L63.6013 27.0851C63.8455 26.439 64.3058 25.6091 64.7933 25.0235L74.2401 14.582C74.43 14.3712 74.7077 14.249 74.9916 14.249L74.9906 14.249Z" fill="#F4F4F4"></path>
  <path d="M90.2138 20.4063L92.3328 20.4063C92.6919 20.4063 92.9351 20.7737 92.8067 21.1067L86.1032 37.9762C84.8777 41.3906 82.3652 42.2821 80.6522 42.2821L78.4654 42.2821C78.1877 42.2821 77.957 42.0514 77.957 41.7716L77.957 40.3291C77.957 40.0503 78.1877 39.8186 78.4654 39.8186L79.5217 39.8186C80.2869 39.8186 82.3119 39.4178 82.9549 37.6965L83.7545 35.2341L78.1481 21.0984C78.0124 20.7654 78.2629 20.3979 78.622 20.3979L80.742 20.3979C80.9518 20.3979 81.1418 20.5274 81.2159 20.7247L85.0416 30.4929C85.2848 31.2007 85.4414 32.0639 85.4414 32.7716L85.5019 32.7716C85.5019 32.0305 85.624 31.2007 85.8672 30.4929L89.7535 20.7184C89.8276 20.5274 90.0176 20.399 90.2274 20.399L90.2138 20.4063Z" fill="#F4F4F4"></path>
  <path d="M105.516 16.3571L105.516 14.759C105.516 14.4803 105.746 14.2485 106.023 14.2485L108.102 14.2485C108.38 14.2485 108.61 14.4803 108.61 14.759L108.61 16.3571C108.61 16.6358 108.379 16.8675 108.102 16.8675L106.023 16.8675C105.745 16.8675 105.516 16.6358 105.516 16.3571ZM108.549 20.9145L108.549 35.2809C108.549 35.5596 108.318 35.7913 108.041 35.7913L106.083 35.7913C105.806 35.7913 105.576 35.5606 105.576 35.2809L105.576 20.9145C105.576 20.6358 105.807 20.4041 106.083 20.4041L108.041 20.4041C108.318 20.4041 108.549 20.6348 108.549 20.9145Z" fill="#F4F4F4"></path>
  <path d="M120.67 20.2208C125.206 20.2479 127.929 22.7719 127.929 28.0976C127.929 33.4233 125.2 35.9744 120.67 35.9744C118.618 35.9744 116.133 35.083 114.724 33.6686C114.237 33.179 113.898 32.2813 113.681 31.6352L113.62 31.6696C113.837 32.3158 114.02 33.2072 114.02 33.9149L114.02 35.2823C114.02 35.5611 113.789 35.7928 113.511 35.7928L111.527 35.7928C111.249 35.7928 111.02 35.5621 111.02 35.2823L111.02 14.7604C111.02 14.4817 111.25 14.25 111.527 14.25L113.511 14.25C113.789 14.25 114.02 14.4817 114.02 14.7604L114.02 22.4066C114.02 23.1143 113.837 23.9776 113.62 24.6853L113.681 24.6853C113.897 24.0391 114.229 23.1477 114.724 22.6519C116.132 21.1759 118.645 20.2239 120.67 20.2239L120.67 20.2208ZM124.957 28.0976C124.957 24.5266 123.332 22.8053 119.655 22.7103C116.96 22.7103 114.022 24.7437 114.022 28.0976C114.022 31.4515 116.96 33.3627 119.655 33.3627C123.454 33.3627 124.957 31.7302 124.957 28.0976Z" fill="#F4F4F4"></path>
  <path d="M145.569 33.2984L145.555 33.2984C144.912 33.2984 144.635 33.0813 144.635 32.312L144.635 26.3392C144.635 21.788 140.924 20.312 137.186 20.312C134.017 20.312 130.712 21.502 130.015 24.836C129.954 25.1283 130.15 25.4206 130.448 25.455L132.209 25.693C132.459 25.7275 132.71 25.5771 132.764 25.3329C133.252 23.3131 134.978 22.741 137.186 22.741C140.037 22.741 141.54 23.6053 141.635 25.9717C141.635 27.1753 138.662 27.0531 135.628 27.1147C132.561 27.2034 129.5 28.1283 129.5 31.4206C129.5 33.1753 130.665 34.4675 132.256 35.2097C133.819 35.9446 135.194 35.883 135.567 35.883C137.835 35.883 140.835 34.9581 141.634 32.0051L141.634 33.359C141.634 34.7128 142.643 35.787 144.207 35.787L145.568 35.787C145.845 35.787 146.075 35.5625 146.075 35.2765L146.075 33.8068C146.075 33.5281 145.844 33.2964 145.568 33.2964L145.569 33.2984ZM141.635 30.3465C141.635 31.6043 140.619 32.5573 139.271 33.1147C137.924 33.6659 136.82 33.7264 136.238 33.7264C134.985 33.7264 132.561 33.2974 132.561 31.359C132.561 27.6377 139.089 29.883 141.635 28.312L141.635 30.3465Z" fill="#F4F4F4"></path>
  <path fill-rule="evenodd" clip-rule="evenodd" d="M49.9999 25.0005C49.9999 38.8076 38.8071 50.0005 25 50.0005C11.1929 50.0005 -6.78525e-06 38.8076 -4.37114e-06 25.0005C-1.95702e-06 11.1934 11.1929 0.000490238 25 0.000492652C38.8071 0.000495066 49.9999 11.1934 49.9999 25.0005ZM27.9513 40.811C28.2005 41.3326 28.7202 41.6374 29.2622 41.6374L29.2626 41.6374C29.4726 41.6374 29.6856 41.5915 29.8873 41.4952C30.6107 41.1497 30.917 40.283 30.5715 39.5596L25.4487 28.833C24.2826 26.3913 24.2826 23.5906 25.4492 21.1494L30.5715 10.4286C30.917 9.70518 30.6107 8.83855 29.8873 8.49306C29.1644 8.14757 28.2973 8.45386 27.9518 9.17726L22.8295 19.8981C22.0741 21.4785 21.6749 23.2393 21.6749 24.991C21.6749 26.7426 22.0736 28.5039 22.8285 30.0843L27.9513 40.811ZM20.7814 41.6497C20.1191 41.6495 19.5213 41.1932 19.368 40.5203L16.6916 28.7828C16.126 26.3025 16.1265 23.6803 16.6926 21.2004L19.368 9.48036C19.5465 8.69889 20.3246 8.20969 21.1061 8.38824C21.8875 8.56679 22.3767 9.34487 22.1982 10.1263L19.5228 21.8464C19.053 23.9043 19.053 26.0794 19.5218 28.1373L22.1982 39.8748C22.3763 40.6563 21.8871 41.4349 21.1056 41.6129C20.9972 41.6376 20.8883 41.6497 20.7814 41.6497ZM12.3072 35.6812C11.5054 35.6812 10.8556 35.0313 10.8556 34.2295L10.8556 15.7531C10.8556 14.9513 11.5054 14.3014 12.3072 14.3014C13.109 14.3014 13.7589 14.9513 13.7589 15.7531L13.7589 34.2295C13.7589 35.0313 13.109 35.6812 12.3072 35.6812ZM37.7367 35.6811C37.4391 35.6811 37.1386 35.5896 36.8797 35.4004L29.6825 30.1271C28.0276 28.9145 27.0782 27.0428 27.0782 24.9912C27.0782 22.9395 28.0276 21.0679 29.6825 19.8553L36.8797 14.582C37.5262 14.1082 38.4349 14.2481 38.9086 14.895C39.3823 15.542 39.2425 16.4502 38.5956 16.9239L31.3983 22.1973C30.4978 22.8568 29.9815 23.8754 29.9815 24.9912C29.9815 26.107 30.4978 27.1256 31.3983 27.7851L38.5956 33.0584C39.2425 33.5322 39.3823 34.4404 38.9086 35.0874C38.6241 35.4754 38.1833 35.6811 37.7367 35.6811Z" fill="#E6FF00"></path>
</svg>
