<svg width="120" height="40" viewBox="0 0 120 40" xmlns="http://www.w3.org/2000/svg">
  <g>
    <path d="M20 2C9.02 2 0 11.02 0 22s9.02 20 20 20 20-9.02 20-20S30.98 2 20 2zm0 36c-8.82 0-16-7.18-16-16s7.18-16 16-16 16 7.18 16 16-7.18 16-16 16z" fill="#facc15"/>
    <path d="M28.36 13.64c-1.56-1.56-3.61-2.42-5.7-2.42h-5.3v21.5h5.3c2.08 0 4.13-.86 5.69-2.42 1.56-1.56 2.43-3.61 2.43-5.7v-5.24c0-2.09-.87-4.14-2.42-5.7zm-2.83 11.31c-.98.98-2.28 1.52-3.63 1.52h-2.5V14.07h2.5c1.35 0 2.65.55 3.63 1.52.98.98 1.52 2.28 1.52 3.63v5.24c0 1.35-.55 2.65-1.52 3.63z" fill="#0c2340"/>
  </g>
  <text x="45" y="28" fill="white" font-family="Inter, sans-serif" font-size="22" font-weight="bold">Kyriba</text>
</svg>
